<?xml version="1.0" encoding="UTF-8" standalone="no"?>
<!-- Created with Inkscape (http://www.inkscape.org/) -->

<svg
   xmlns:dc="http://purl.org/dc/elements/1.1/"
   xmlns:cc="http://creativecommons.org/ns#"
   xmlns:rdf="http://www.w3.org/1999/02/22-rdf-syntax-ns#"
   xmlns:svg="http://www.w3.org/2000/svg"
   xmlns="http://www.w3.org/2000/svg"
   xmlns:sodipodi="http://sodipodi.sourceforge.net/DTD/sodipodi-0.dtd"
   xmlns:inkscape="http://www.inkscape.org/namespaces/inkscape"
   version="1.1"
   id="svg834"
   xml:space="preserve"
   width="783.41333"
   height="119.41333"
   viewBox="0 0 783.41333 119.41333"
   sodipodi:docname="AXIOM_Logo.svg"
   inkscape:version="0.92.4 5da689c313, 2019-01-14"><metadata
     id="metadata840"><rdf:RDF><cc:Work
         rdf:about=""><dc:format>image/svg+xml</dc:format><dc:type
           rdf:resource="http://purl.org/dc/dcmitype/StillImage" /><dc:title></dc:title></cc:Work></rdf:RDF></metadata><defs
     id="defs838" /><sodipodi:namedview
     pagecolor="#ffffff"
     bordercolor="#666666"
     borderopacity="1"
     objecttolerance="10"
     gridtolerance="10"
     guidetolerance="10"
     inkscape:pageopacity="0"
     inkscape:pageshadow="2"
     inkscape:window-width="2560"
     inkscape:window-height="1394"
     id="namedview836"
     showgrid="false"
     inkscape:zoom="2.4916604"
     inkscape:cx="393.31202"
     inkscape:cy="59.706665"
     inkscape:window-x="0"
     inkscape:window-y="0"
     inkscape:window-maximized="1"
     inkscape:current-layer="g842" /><g
     id="g842"
     inkscape:groupmode="layer"
     inkscape:label="ink_ext_XXXXXX"
     transform="matrix(1.3333333,0,0,-1.3333333,0,119.41333)"><g
       id="g844"
       transform="scale(0.1)"><path
         d="m 3963.81,739.055 c -160.58,0 -291.27,-130.66 -291.27,-291.274 0,-160.593 130.69,-291.258 291.27,-291.258 160.62,0 291.27,130.665 291.27,291.258 0,160.614 -130.65,291.274 -291.27,291.274 M 3963.81,0 c -246.89,0 -447.78,200.879 -447.78,447.781 0,246.922 200.89,447.789 447.78,447.789 246.93,0 447.79,-200.867 447.79,-447.789 C 4411.6,200.879 4210.74,0 3963.81,0"
         style="fill:#fa8756;fill-opacity:0.98455596;fill-rule:nonzero;stroke:none"
         id="path846"
         inkscape:connector-curvature="0" /><path
         d="M 412.078,495.543 643.539,19.6094 H 824.133 L 412.301,890.406 0,19.6094 H 180.59 L 412.078,495.543"
         style="fill:#666363;fill-opacity:1;fill-rule:nonzero;stroke:none"
         id="path848"
         inkscape:connector-curvature="0" /><path
         d="m 2759.38,19.5898 h 172.51 V 875.094 H 2759.38 V 19.5898"
         style="fill:#666363;fill-opacity:1;fill-rule:nonzero;stroke:none"
         id="path850"
         inkscape:connector-curvature="0" /><path
         d="M 5747.26,891.996 5372.73,293.711 4998.2,891.996 4869.82,19.5898 h 159.28 l 61.33,419.9612 282.3,-405.3713 282.32,405.3713 61.3,-419.9612 h 159.29 L 5747.26,891.996"
         style="fill:#666363;fill-opacity:1;fill-rule:nonzero;stroke:none"
         id="path852"
         inkscape:connector-curvature="0" /><path
         d="m 2120.6,19.5898 -292,368.3402 234.77,487.168 H 1883.64 L 1716.78,528.922 1442.34,875.098 H 1234.96 L 1526.97,506.77 1292.19,19.5898 h 179.73 L 1638.75,365.781 1913.22,19.5898 h 207.38"
         style="fill:#666363;fill-opacity:1;fill-rule:nonzero;stroke:none"
         id="path854"
         inkscape:connector-curvature="0" /></g></g></svg>
