<?xml version="1.0" encoding="UTF-8" standalone="no"?>
<svg
   xmlns:dc="http://purl.org/dc/elements/1.1/"
   xmlns:cc="http://creativecommons.org/ns#"
   xmlns:rdf="http://www.w3.org/1999/02/22-rdf-syntax-ns#"
   xmlns:svg="http://www.w3.org/2000/svg"
   xmlns="http://www.w3.org/2000/svg"
   xmlns:sodipodi="http://sodipodi.sourceforge.net/DTD/sodipodi-0.dtd"
   xmlns:inkscape="http://www.inkscape.org/namespaces/inkscape"
   version="1.0"
   width="1758.8748pt"
   height="1543.713pt"
   viewBox="0 0 1758.8748 1543.713"
   preserveAspectRatio="xMidYMid meet"
   id="svg1290"
   sodipodi:docname="ML-Logo.svg"
   inkscape:version="0.92.4 5da689c313, 2019-01-14">
  <defs
     id="defs1294" />
  <sodipodi:namedview
     pagecolor="#ffffff"
     bordercolor="#666666"
     borderopacity="1"
     objecttolerance="10"
     gridtolerance="10"
     guidetolerance="10"
     inkscape:pageopacity="0"
     inkscape:pageshadow="2"
     inkscape:window-width="1920"
     inkscape:window-height="1031"
     id="namedview1292"
     showgrid="false"
     fit-margin-top="0"
     fit-margin-left="0"
     fit-margin-right="0"
     fit-margin-bottom="0"
     inkscape:zoom="0.29018885"
     inkscape:cx="1169.8295"
     inkscape:cy="1000.4962"
     inkscape:window-x="0"
     inkscape:window-y="14"
     inkscape:window-maximized="0"
     inkscape:current-layer="svg1290" />
  <metadata
     id="metadata1248">
Created by potrace 1.15, written by Peter Selinger 2001-2017
<rdf:RDF>
  <cc:Work
     rdf:about="">
    <dc:format>image/svg+xml</dc:format>
    <dc:type
       rdf:resource="http://purl.org/dc/dcmitype/StillImage" />
    <dc:title></dc:title>
  </cc:Work>
</rdf:RDF>
</metadata>
  <g
     transform="matrix(0.1,0,0,-0.1,-789.12786,1878.8409)"
     id="g1252"
     style="fill:#ffffff;stroke:none">
    <path
       d="m 14755,18778 c -754,-60 -1340,-327 -1742,-793 -128,-148 -231,-307 -342,-525 -51,-100 -123,-227 -161,-283 -272,-405 -730,-701 -1315,-851 -77,-19 -408,-83 -735,-141 -656,-116 -738,-134 -932,-199 -955,-321 -1547,-1074 -1628,-2071 -8,-102 -10,-1000 -8,-3280 4,-3428 0,-3167 58,-3440 65,-302 209,-605 397,-834 l 61,-74 -45,-24 c -150,-79 -277,-211 -355,-368 -33,-65 -65,-159 -91,-265 -19,-81 -21,-117 -24,-770 -3,-472 -1,-709 7,-762 56,-386 365,-679 775,-738 59,-8 2173,-10 8060,-8 l 7980,3 79,23 c 186,54 290,114 417,241 131,131 197,250 245,441 18,70 19,122 19,795 v 720 l -23,84 c -44,161 -118,294 -230,412 -72,77 -147,137 -220,177 l -51,28 55,64 c 247,289 417,705 463,1132 8,66 11,1111 11,3260 0,3443 3,3262 -56,3539 -68,325 -213,645 -403,894 -64,84 -242,266 -330,337 -279,225 -600,374 -994,462 -68,16 -721,105 -1574,216 -802,104 -1519,201 -1593,215 -511,97 -855,252 -1100,494 -151,149 -232,276 -327,509 -90,221 -173,374 -280,515 -393,518 -1011,804 -1878,867 -171,12 -2033,11 -2190,-2 z"
       id="path1250"
       inkscape:connector-curvature="0" />
  </g>
  <g
     transform="matrix(0.1,0,0,-0.1,-789.12786,1878.8409)"
     id="g1284"
     style="fill:#000000;stroke:none">
    <path
       d="m 14795,18349 c -548,-43 -977,-203 -1298,-484 -177,-154 -306,-330 -446,-607 -152,-300 -249,-437 -455,-644 -201,-202 -391,-338 -656,-470 -223,-111 -480,-201 -735,-258 -61,-14 -376,-73 -700,-130 -325,-58 -626,-115 -670,-126 -158,-41 -303,-96 -465,-177 -391,-196 -663,-466 -845,-838 -94,-193 -146,-362 -182,-595 -17,-109 -18,-283 -18,-3285 0,-3438 -3,-3246 55,-3484 72,-290 196,-517 395,-717 258,-259 587,-403 1011,-444 155,-14 13659,-14 13810,1 399,39 733,182 981,422 128,124 211,236 288,392 100,201 151,378 175,611 7,68 10,1101 7,3284 -3,3171 -3,3185 -24,3295 -54,291 -140,510 -281,720 -255,380 -669,638 -1187,739 -44,9 -719,99 -1500,201 -781,102 -1474,194 -1540,205 -766,132 -1286,417 -1604,880 -81,119 -141,232 -206,395 -89,221 -165,352 -289,497 -247,289 -639,489 -1126,573 -272,47 -281,48 -1360,50 -564,2 -1074,-1 -1135,-6 z m 3018,-4271 c 41,-692 509,-1303 1167,-1522 148,-49 286,-76 428,-83 l 122,-6 -3,-2271 c -2,-2065 -4,-2277 -19,-2337 -52,-210 -116,-327 -253,-464 -140,-140 -268,-209 -465,-252 -82,-17 -256,-18 -4330,-18 -4074,0 -4248,1 -4330,18 -302,65 -524,228 -646,472 -24,50 -54,128 -67,175 l -22,85 v 2705 c 0,2943 -3,2781 57,2970 112,356 360,562 748,623 14,3 1731,5 3816,6 l 3791,1 z"
       id="path1254"
       inkscape:connector-curvature="0" />
    <path
       d="M 10260,10660 V 7850 h 640 640 l 2,1824 3,1823 254,-1756 c 139,-966 258,-1786 264,-1823 l 9,-68 h 453 453 l 5,28 c 3,15 115,846 248,1847 l 244,1820 6,-1645 c 3,-905 7,-1736 8,-1848 l 1,-202 638,2 637,3 v 2805 2805 l -944,3 c -520,1 -948,-1 -952,-5 -4,-5 -81,-582 -170,-1283 -89,-701 -165,-1278 -168,-1282 -6,-7 -132,841 -237,1602 -59,431 -129,898 -141,948 l -5,22 h -944 -944 z"
       id="path1256"
       inkscape:connector-curvature="0" />
    <path
       d="M 15440,10660 V 7850 h 1630 1630 v 565 565 h -900 -900 v 2245 2245 h -730 -730 z"
       id="path1258"
       inkscape:connector-curvature="0" />
    <path
       d="m 12333,5400 c -137,-25 -256,-92 -357,-201 -74,-80 -126,-173 -158,-284 -33,-115 -33,-299 0,-405 36,-115 89,-207 166,-288 81,-85 151,-130 261,-168 71,-25 94,-28 205,-27 107,0 137,4 206,26 258,85 421,319 441,635 l 6,92 h -322 -321 v -130 -130 h 155 c 85,0 155,-2 155,-5 0,-20 -51,-106 -80,-135 -62,-62 -121,-84 -225,-85 -79,0 -97,4 -146,28 -137,67 -219,216 -219,397 0,182 81,331 215,392 71,33 216,32 292,-1 57,-25 111,-78 134,-130 l 14,-33 145,7 c 80,4 149,11 154,16 15,14 -40,139 -93,209 -78,104 -178,168 -316,205 -73,19 -242,27 -312,15 z"
       id="path1260"
       inkscape:connector-curvature="0" />
    <path
       d="m 14435,5395 c -225,-49 -397,-219 -467,-460 -19,-68 -23,-102 -22,-225 0,-170 15,-245 74,-367 71,-146 204,-254 370,-299 90,-24 264,-24 345,0 143,43 279,147 350,270 29,49 79,176 72,182 -4,4 -225,24 -268,24 -22,0 -31,-9 -53,-53 -56,-116 -143,-172 -266,-172 -199,1 -319,156 -320,412 0,191 70,336 194,401 43,23 63,27 131,27 70,-1 87,-4 135,-30 64,-36 113,-95 136,-168 l 16,-53 62,4 c 33,2 99,7 146,10 l 85,7 -4,30 c -6,56 -53,170 -98,237 -69,105 -173,178 -306,214 -81,22 -231,26 -312,9 z"
       id="path1262"
       inkscape:connector-curvature="0" />
    <path
       d="m 8840,4715 v -675 h 145 145 l 2,389 3,389 160,-389 160,-389 h 85 86 l 159,397 160,396 3,-396 2,-397 h 145 145 v 675 675 h -164 -164 l -75,-172 c -41,-95 -123,-287 -182,-425 -60,-139 -111,-253 -115,-253 -4,0 -28,51 -55,113 -26,61 -108,253 -182,425 l -135,312 h -164 -164 z"
       id="path1264"
       inkscape:connector-curvature="0" />
    <path
       d="m 10700,4778 c -123,-337 -234,-641 -247,-676 l -23,-62 162,2 162,3 41,130 41,130 h 229 228 l 45,-132 44,-133 h 160 160 l -6,23 c -3,12 -111,315 -239,672 l -234,650 -150,3 -150,3 z m 440,-5 69,-208 -75,-3 c -41,-2 -105,-2 -142,0 l -68,3 69,213 c 38,118 71,211 74,209 2,-3 35,-99 73,-214 z"
       id="path1266"
       inkscape:connector-curvature="0" />
    <path
       d="m 13370,4715 v -675 h 150 150 v 675 675 h -150 -150 z"
       id="path1268"
       inkscape:connector-curvature="0" />
    <path
       d="m 16020,4715 v -675 h 400 400 v 140 140 h -250 -250 v 535 535 h -150 -150 z"
       id="path1270"
       inkscape:connector-curvature="0" />
    <path
       d="m 17235,4793 c -120,-329 -230,-633 -246,-676 l -29,-77 162,2 162,3 41,130 41,130 h 229 228 l 45,-132 44,-133 h 160 160 l -6,23 c -3,12 -111,315 -239,672 l -234,650 -150,3 -150,3 z m 435,-20 68,-208 -75,-3 c -40,-2 -104,-2 -141,0 l -68,3 69,213 c 38,118 71,211 74,208 3,-2 36,-98 73,-213 z"
       id="path1272"
       inkscape:connector-curvature="0" />
    <path
       d="m 18430,4715 v -675 h 145 145 l 2,422 3,421 257,-419 256,-419 151,-3 151,-3 v 676 675 h -145 -145 l -2,-415 -3,-414 -251,412 -252,412 -156,3 -156,3 z"
       id="path1274"
       inkscape:connector-curvature="0" />
    <path
       d="m 19760,5255 v -135 h 170 170 v -540 -540 h 150 150 v 540 540 h 175 176 l -3,133 -3,132 -492,3 -493,2 z"
       id="path1276"
       inkscape:connector-curvature="0" />
    <path
       d="m 20960,4715 v -675 h 435 435 v 135 135 h -285 -285 v 140 140 h 280 281 l -3,133 -3,132 -277,3 -278,2 v 130 130 h 285 285 v 135 135 h -435 -435 z"
       id="path1278"
       inkscape:connector-curvature="0" />
    <path
       d="m 22120,4715 v -675 h 150 150 v 255 255 h 59 59 l 127,-247 c 70,-137 130,-251 134,-256 4,-4 85,-6 179,-5 l 172,3 -150,268 c -82,147 -150,271 -150,275 0,4 16,16 36,27 55,30 130,118 154,183 69,183 38,354 -85,471 -110,104 -185,121 -557,121 h -278 z m 579,390 c 58,-34 76,-68 76,-140 0,-120 -55,-158 -237,-163 l -118,-4 v 167 167 l 123,-4 c 99,-3 129,-8 156,-23 z"
       id="path1280"
       inkscape:connector-curvature="0" />
    <path
       d="m 23340,4715 v -675 h 145 145 l 2,422 3,422 257,-420 256,-419 151,-3 151,-3 v 676 675 h -145 -145 l -2,-415 -3,-414 -251,412 -252,412 -156,3 -156,3 z"
       id="path1282"
       inkscape:connector-curvature="0" />
  </g>
  <g
     transform="matrix(0.1,0,0,-0.1,-789.12786,1878.8409)"
     id="g1288"
     style="fill:#ff0000;stroke:none">
    <circle
       cx="19525"
       cy="14180"
       r="810"
       id="circle1286" />
  </g>
</svg>
