<?xml version="1.0" encoding="UTF-8" standalone="no"?>
<!-- Created with Inkscape (http://www.inkscape.org/) -->

<svg
   xmlns:dc="http://purl.org/dc/elements/1.1/"
   xmlns:cc="http://creativecommons.org/ns#"
   xmlns:rdf="http://www.w3.org/1999/02/22-rdf-syntax-ns#"
   xmlns:svg="http://www.w3.org/2000/svg"
   xmlns="http://www.w3.org/2000/svg"
   xmlns:sodipodi="http://sodipodi.sourceforge.net/DTD/sodipodi-0.dtd"
   xmlns:inkscape="http://www.inkscape.org/namespaces/inkscape"
   id="svg4206"
   version="1.1"
   inkscape:version="0.91 r13725"
   width="1200"
   height="675"
   viewBox="0 0 1200 675"
   sodipodi:docname="Overview-GPL3.svg">
  <metadata
     id="metadata4212">
    <rdf:RDF>
      <cc:Work
         rdf:about="">
        <dc:format>image/svg+xml</dc:format>
        <dc:type
           rdf:resource="http://purl.org/dc/dcmitype/StillImage" />
        <dc:title></dc:title>
      </cc:Work>
    </rdf:RDF>
  </metadata>
  <defs
     id="defs4210" />
  <sodipodi:namedview
     pagecolor="#ffffff"
     bordercolor="#666666"
     borderopacity="0.54901961"
     objecttolerance="10"
     gridtolerance="10"
     guidetolerance="10"
     inkscape:pageopacity="0"
     inkscape:pageshadow="2"
     inkscape:window-width="2100"
     inkscape:window-height="1271"
     id="namedview4208"
     showgrid="false"
     inkscape:showpageshadow="false"
     inkscape:zoom="0.90348743"
     inkscape:cx="540"
     inkscape:cy="303.75"
     inkscape:window-x="364"
     inkscape:window-y="49"
     inkscape:window-maximized="0"
     inkscape:current-layer="layer1"
     showborder="false" />
  <g
     inkscape:groupmode="layer"
     id="layer1"
     inkscape:label="Layer 1"
     transform="translate(0,67.5)"
     style="display:inline">
    <rect
       style="opacity:1;fill:#e1e1e1;fill-opacity:1;fill-rule:evenodd;stroke:none;stroke-width:0.99958372px;stroke-linecap:butt;stroke-linejoin:miter;stroke-opacity:1"
       id="rect4217"
       width="1200"
       height="675.00043"
       x="0"
       y="-67.500427" />
  </g>
  <g
     inkscape:groupmode="layer"
     id="layer2"
     inkscape:label="Layer 2"
     style="display:none">
    <path
       inkscape:connector-curvature="0"
       style="fill:#484748"
       d="m 553.84512,93.571742 c -18.15856,1.42766 -32.37942,6.731328 -43.00858,16.035148 -5.86932,5.1081 -10.13724,10.93304 -14.77899,20.11198 -5.03138,9.94167 -8.24172,14.47811 -15.07308,21.3343 -6.66213,6.69598 -12.95042,11.19932 -21.72093,15.56502 -7.38949,3.68722 -15.91027,6.65987 -24.35809,8.55012 -2.01285,0.46711 -12.45848,2.41678 -23.18995,4.30928 -10.76154,1.91733 -20.7363,3.80532 -22.19856,4.17539 -5.22996,1.35168 -10.03418,3.178 -15.39653,5.86632 -12.95793,6.48611 -21.97065,15.44015 -27.99416,27.76174 -3.11481,6.39058 -4.84108,11.99212 -6.03781,19.70054 -0.56565,3.61878 -0.59498,9.38505 -0.59498,108.83253 0,113.90077 -0.0955,107.53651 1.82932,115.42094 2.37992,9.60769 6.48611,17.1228 13.07527,23.74807 8.55012,8.58396 19.45835,13.35885 33.49567,14.7173 5.14196,0.45808 452.50255,0.45808 457.51889,-0.0376 13.21443,-1.29 24.27009,-6.03104 32.48924,-13.97865 4.23858,-4.11071 6.99309,-7.81599 9.54226,-12.97975 3.31263,-6.66213 5.00204,-12.53145 5.7956,-20.2519 0.22791,-2.24754 0.33021,-36.47057 0.22791,-108.78815 -0.088,-105.05354 -0.088,-105.51613 -0.78603,-109.16274 -1.79999,-9.64154 -4.6425,-16.89188 -9.31434,-23.85563 -8.4403,-12.59012 -22.16171,-21.12895 -39.31384,-24.47844 -1.47655,-0.30088 -23.82931,-3.2833 -49.70682,-6.66213 -25.87149,-3.37582 -48.826,-6.42744 -51.01487,-6.78473 -25.37129,-4.37773 -42.60466,-13.82446 -53.13077,-29.15479 -2.69584,-3.94749 -4.67936,-7.67909 -6.83137,-13.08957 -2.95309,-7.31653 -5.4654,-11.65741 -9.57159,-16.46464 -8.18305,-9.57159 -21.17709,-16.201367 -37.30099,-18.977688 -9.01271,-1.56455 -9.30681,-1.5969 -45.05754,-1.66309 -18.6866,-0.0602 -35.57396,0.0376 -37.59434,0.20008 z m 99.97401,141.494018 c 1.36598,22.92593 16.86556,43.16279 38.67448,50.4244 4.89223,1.62323 9.46102,2.51983 14.16972,2.74699 l 4.04,0.19858 -0.0955,75.24058 c -0.0752,68.4047 -0.13239,75.43464 -0.63184,77.42268 -1.72627,6.96375 -3.83465,10.82999 -8.38163,15.36268 -4.63498,4.6425 -8.88108,6.92689 -15.40405,8.35605 -2.72518,0.56113 -8.48392,0.59498 -143.45196,0.59498 -134.96052,0 -140.73431,-0.0301 -143.44444,-0.59498 -10.00485,-2.15201 -17.34996,-7.55573 -21.39748,-15.64325 -0.79356,-1.64804 -1.79999,-4.23858 -2.22573,-5.78808 l -0.72736,-2.82823 0,-89.60886 c 0,-97.49782 -0.10305,-92.12419 1.88799,-98.38991 3.70979,-11.7943 11.92894,-18.61815 24.78383,-20.64078 0.45507,-0.10305 57.33926,-0.16172 126.41717,-0.20309 l 125.59502,-0.0226 0.19181,3.37506 z"
       id="path4598" />
    <path
       inkscape:connector-curvature="0"
       style="fill:#484748"
       d="m 403.60617,348.30235 0,93.09375 21.19213,0 21.19966,0 0.0752,-60.43226 0.10305,-60.39089 8.40344,58.17269 c 4.61317,32.00934 8.55764,59.16858 8.75622,60.39991 l 0.2941,2.25055 15.0069,0 15.00689,0 0.16925,-0.93271 c 0.10305,-0.49193 3.81208,-28.02351 8.2199,-61.18445 l 8.08,-60.29988 0.19858,54.50427 c 0.10305,29.97318 0.2422,57.50851 0.27154,61.22131 l 0.0301,6.69146 21.13346,-0.0602 21.10413,-0.10004 0,-92.93203 0,-92.92902 -31.27747,-0.10305 c -17.21832,-0.0226 -31.39481,0.0376 -31.53471,0.17225 -0.13239,0.16623 -2.6808,19.28233 -5.63389,42.50612 -2.93804,23.21928 -5.47216,42.33538 -5.57521,42.47228 -0.19106,0.23092 -4.37096,-27.86178 -7.84532,-53.07211 -1.95418,-14.27953 -4.26039,-29.75428 -4.67184,-31.40684 l -0.1542,-0.73489 -31.27746,0 -31.26995,0 0,93.09526 z"
       id="path4600" />
    <path
       inkscape:connector-curvature="0"
       style="fill:#484748"
       d="m 575.21402,348.30235 0,93.09375 53.98977,0 54.01234,0 0,-18.71669 0,-18.7242 -29.82273,0 -29.81597,0 0,-74.37406 0,-74.37406 -24.18133,0 -24.18133,0 0,93.09526 z"
       id="path4602" />
    <path
       inkscape:connector-curvature="0"
       style="fill:#484748"
       d="m 472.28015,522.55414 c -4.53945,0.83267 -8.48392,3.05162 -11.83342,6.66513 -2.44611,2.65899 -4.17238,5.72641 -5.22996,9.40686 -1.10195,3.8151 -1.10195,9.9018 0,13.42053 1.18996,3.80833 2.94557,6.85619 5.49473,9.53473 2.69584,2.82372 4.99528,4.31154 8.65317,5.57522 2.35059,0.82289 3.10729,0.91842 6.78699,0.88457 3.54807,0 4.53945,-0.13238 6.82385,-0.86652 8.55011,-2.8019 13.94932,-10.55545 14.61801,-21.03041 l 0.19106,-3.04411 -10.66602,0 -10.63669,0 0,4.30778 0,4.30929 5.14195,0 c 2.81319,0 5.12692,0.0602 5.12692,0.16172 0,0.66117 -1.6819,3.50669 -2.65147,4.47626 -2.04219,2.05348 -4.01066,2.78084 -7.44816,2.82071 -2.62212,0 -3.2171,-0.14216 -4.84108,-0.93271 -4.53193,-2.21821 -7.2571,-7.16459 -7.2571,-13.15577 0,-6.03329 2.68831,-10.9699 7.12547,-12.98727 2.35059,-1.08992 7.14729,-1.06058 9.68893,0.0301 1.88047,0.83718 3.66541,2.58602 4.42963,4.31906 l 0.4626,1.08691 4.7967,-0.23092 c 2.65146,-0.13238 4.93661,-0.37158 5.1051,-0.5333 0.49945,-0.47012 -1.32987,-4.60565 -3.08548,-6.91937 -2.58602,-3.44803 -5.89865,-5.57071 -10.46744,-6.79452 -2.41678,-0.62807 -8.01456,-0.89736 -10.32829,-0.50321 z"
       id="path4604" />
    <path
       inkscape:connector-curvature="0"
       style="fill:#484748"
       d="m 541.9237,522.72263 c -7.46321,1.62322 -13.16328,7.2571 -15.48453,15.23782 -0.62432,2.25957 -0.75671,3.37882 -0.73489,7.45568 0,5.62636 0.49945,8.11686 2.4604,12.15686 2.35059,4.84108 6.75089,8.41547 12.25991,9.91383 2.9749,0.78904 8.74117,0.78904 11.42272,0 4.73803,-1.42916 9.24815,-4.87042 11.59121,-8.94426 0.96957,-1.63075 2.62965,-5.83999 2.39497,-6.0333 -0.13991,-0.12938 -7.44816,-0.79356 -8.88785,-0.79356 -0.72737,0 -1.01395,0.29712 -1.74809,1.75109 -1.85113,3.84594 -4.73803,5.7076 -8.80736,5.7076 -6.59669,-0.0376 -10.57049,-5.17429 -10.60735,-13.65521 0,-6.33192 2.32125,-11.13163 6.43497,-13.28063 1.41035,-0.76723 2.07904,-0.89886 4.34087,-0.89886 2.31373,0.0226 2.87937,0.13239 4.46649,0.99138 2.1159,1.19749 3.73912,3.14716 4.51012,5.57071 l 0.52126,1.75259 2.06401,-0.13238 c 1.07262,-0.0677 3.26148,-0.23544 4.83355,-0.33473 l 2.81319,-0.22791 -0.13239,-0.9989 c -0.21287,-1.85866 -1.74808,-5.62938 -3.24644,-7.8551 -2.2844,-3.47435 -5.73694,-5.89113 -10.144,-7.08109 -2.67403,-0.73188 -7.63997,-0.86427 -10.32077,-0.30163 z"
       id="path4606" />
    <path
       inkscape:connector-curvature="0"
       style="fill:#484748"
       d="m 356.56511,545.2514 0,22.36254 4.7967,0 4.7967,0 0.0677,-12.88723 0.10305,-12.88422 5.29616,12.88422 5.31119,12.88723 2.81319,0 2.85004,0 5.26681,-13.15877 5.30368,-13.11665 0.0955,13.11665 0.0602,13.15877 4.81099,0 4.80423,0 0,-22.36254 0,-22.36705 -5.42854,0 -5.44283,0 -2.47545,5.71061 c -1.3592,3.14113 -4.08438,9.49486 -6.03781,14.06666 -1.98352,4.61016 -3.66541,8.38163 -3.80532,8.38163 -0.13238,0 -0.92519,-1.67738 -1.81428,-3.73913 -0.86652,-2.02038 -3.58492,-8.38163 -6.03104,-14.07719 l -4.47326,-10.34258 -5.45035,0 -5.41349,0 0,22.36705 z"
       id="path4608" />
    <path
       inkscape:connector-curvature="0"
       style="fill:#484748"
       d="m 418.17981,543.16859 c -4.07686,11.15795 -7.75732,21.23576 -8.18305,22.38661 l -0.76423,2.05949 5.37664,-0.0677 5.35482,-0.10756 1.35921,-4.28972 1.3592,-4.31907 7.58807,0 7.54369,0 1.49836,4.37473 1.4615,4.41007 5.29615,0 5.29615,0 -0.19105,-0.76723 c -0.10305,-0.38662 -3.68046,-10.42757 -7.91828,-22.24971 l -7.75731,-21.5419 -4.97271,-0.10305 -4.96595,-0.0955 -7.38121,20.31208 z m 14.58115,0.16172 2.27687,6.89756 -2.49049,0.0925 c -1.3592,0.0752 -3.46683,0.0752 -4.70117,0 l -2.24077,-0.0925 2.27687,-7.05928 c 1.25616,-3.91513 2.35811,-6.99309 2.45364,-6.91937 0.0677,0.0955 1.16138,3.27277 2.42505,7.08109 z"
       id="path4610" />
    <path
       inkscape:connector-curvature="0"
       style="fill:#484748"
       d="m 506.62805,545.2514 0,22.36254 4.96594,0 4.98023,0 0,-22.36254 0,-22.36705 -4.98023,0 -4.96594,0 0,22.36705 z"
       id="path4612" />
    <path
       inkscape:connector-curvature="0"
       style="fill:#484748"
       d="m 594.42264,545.2514 0,22.36254 13.25129,0 13.25129,0 0,-4.63498 0,-4.6425 -8.2861,0 -8.27858,0 0,-17.71778 0,-17.73508 -4.96594,0 -4.97272,0 0,22.3678 z"
       id="path4614" />
    <path
       inkscape:connector-curvature="0"
       style="fill:#484748"
       d="m 634.66919,542.66162 c -3.96629,10.90522 -7.61741,20.97626 -8.14619,22.39338 l -0.96205,2.55894 5.36987,-0.0677 5.36986,-0.10756 1.35921,-4.28973 1.35168,-4.31906 7.58807,0 7.55873,0 1.49084,4.37473 1.45473,4.41007 5.29615,0 5.30368,0 -0.19858,-0.76723 c -0.10305,-0.38662 -3.67293,-10.42758 -7.91151,-22.24971 l -7.75731,-21.5419 -4.97272,-0.10305 -4.96594,-0.0955 -7.22852,19.80585 z m 14.41944,0.66869 2.24076,6.89756 -2.48297,0.0925 c -1.32234,0.0752 -3.4375,0.0752 -4.66431,0 l -2.25506,-0.0925 2.28439,-7.05928 c 1.26368,-3.91513 2.35811,-6.99309 2.46041,-6.89756 0.0955,0.0752 1.18996,3.25096 2.41678,7.05928 z"
       id="path4616" />
    <path
       inkscape:connector-curvature="0"
       style="fill:#484748"
       d="m 674.26134,545.2514 0,22.36254 4.80422,0 4.81099,0 0.0602,-13.97866 0.0955,-13.94932 8.51326,13.88012 8.48393,13.8711 5.00957,0.10756 5.00204,0.10305 0,-22.39639 0,-22.36705 -4.80422,0 -4.81099,0 -0.0677,13.76127 -0.0955,13.70712 -8.31544,-13.6507 -8.35229,-13.64544 -5.16377,-0.10305 -5.17129,-0.0955 0,22.39338 z"
       id="path4618" />
    <path
       inkscape:connector-curvature="0"
       style="fill:#484748"
       d="m 718.3275,527.36513 0,4.47627 5.62636,0 5.63389,0 0,17.8795 0,17.89379 4.97271,0 4.96594,0 0,-17.89379 0,-17.8795 5.79561,0 5.83246,0 -0.10305,-4.41008 -0.10305,-4.37472 -16.28486,-0.10305 -16.33676,-0.0677 0,4.48079 z"
       id="path4620" />
    <path
       inkscape:connector-curvature="0"
       style="fill:#484748"
       d="m 758.0746,545.2514 0,22.36254 14.41191,0 14.4044,0 0,-4.46649 0,-4.4883 -9.43168,0 -9.44673,0 0,-4.63047 0,-4.63498 9.27749,0 9.31433,0 -0.10304,-4.40406 -0.10305,-4.37096 -9.17444,-0.10982 -9.21129,-0.0677 0,-4.30477 0,-4.29725 9.44673,0 9.43168,0 0,-4.47627 0,-4.48078 -14.4044,0 -14.41191,0 0,22.36781 z"
       id="path4622" />
    <path
       inkscape:connector-curvature="0"
       style="fill:#484748"
       d="m 796.50688,545.2514 0,22.36254 4.96594,0 4.97271,0 0,-8.4403 0,-8.4576 1.95418,0 1.95419,0 4.21601,8.18606 c 2.31373,4.53193 4.30402,8.30791 4.4364,8.47716 0.13239,0.1399 2.81318,0.19857 5.91295,0.16623 l 5.71512,-0.10756 -4.97271,-8.86604 c -2.71766,-4.87041 -4.97271,-8.97961 -4.97271,-9.11125 0,-0.12937 0.53631,-0.52879 1.205,-0.89585 1.8218,-0.9959 4.28973,-3.91213 5.09081,-6.06715 2.28439,-6.04984 1.25615,-11.71607 -2.80566,-15.60187 -3.65112,-3.4375 -6.14086,-4.01067 -18.45192,-4.01067 l -9.21881,0 0,22.3663 z m 19.18605,-12.92033 c 1.91732,1.12678 2.51982,2.25506 2.51982,4.64251 0,3.97681 -1.82932,5.23297 -7.8596,5.3992 l -3.90762,0.12486 0,-5.52406 0,-5.53535 4.08438,0.12486 c 3.27578,0.10982 4.27468,0.27831 5.16302,0.76798 z"
       id="path4624" />
    <path
       inkscape:connector-curvature="0"
       style="fill:#484748"
       d="m 836.92192,545.2514 0,22.36254 4.81099,0 4.7967,0 0.0677,-13.97866 0.10305,-13.98166 8.50649,13.91246 8.48392,13.8711 5.00205,0.10756 5.00205,0.10305 0,-22.39639 0,-22.36705 -4.7967,0 -4.80423,0 -0.0752,13.76127 -0.10305,13.70712 -8.30792,-13.6507 -8.34477,-13.64544 -5.17129,-0.10305 -5.17129,-0.0955 0,22.39338 z"
       id="path4626" />
    <circle
       transform="scale(1,-1)"
       style="fill:#b1ada6"
       cx="710.53418"
       cy="-231.68941"
       r="26.835045"
       id="circle4628" />
  </g>
  <g
     inkscape:groupmode="layer"
     id="layer3"
     inkscape:label="Layer 3"
     style="display:inline" />
  <g
     inkscape:groupmode="layer"
     id="layer4"
     inkscape:label="Layer 4"
     style="display:none">
    <polygon
       transform="matrix(7.7929274,0,0,7.7929274,-4202.4221,-1430.9129)"
       style="fill:#b1ada6"
       points="611.313,255.809 609.563,256.063 607.5,256.063 605.584,255.195 603.735,254.688 601.688,254.063 599.188,253.563 596.75,253.313 595.25,252.875 594.288,251.625 594,250.5 594.288,249 594.288,246.886 594.288,244.813 594.288,243.438 594.697,241.882 596.688,241.313 598.125,240.5 599.188,239.557 600.478,238.678 601.188,237.365 602.313,236.75 603.735,237.19 605.75,238.678 607.188,240.75 608.563,243.25 609.813,245.688 611.188,247.25 612.172,248.938 613.438,250.125 613.75,251.813 613.183,253.25 612.831,254.563 "
       id="polygon4531" />
    <polygon
       transform="matrix(7.7929274,0,0,7.7929274,-4202.4221,-1430.9129)"
       style="fill:#b1ada6"
       points="637.938,252.625 636.469,254.281 634.229,256.063 631.188,256.875 629.188,256.521 627.931,255.021 626.25,252.938 626.688,250.063 627.438,247.813 628.063,245.813 628.438,243.563 628.719,240.438 629.125,238.75 629.875,237.563 631.381,236.985 631.652,239 632.938,239.557 634.229,240.125 636.438,239.063 637.438,238.313 639.222,238.25 640.5,238.75 642.096,239.687 642.375,241.813 642.375,243 643.188,244.25 643.938,245 644.68,246.063 645.063,246.886 645.063,247.938 644.344,248.813 643.625,249.344 641.438,250.625 639.691,251.103 "
       id="polygon4537" />
    <polygon
       transform="matrix(7.7929274,0,0,7.7929274,-4202.4221,-1430.9129)"
       style="fill:#b1ada6"
       points="624.055,210.073 624.656,210.406 625.301,210.969 625.531,211.844 625.531,212.469 625.156,213.125 624.688,213.688 624.055,214.094 623.38,214.389 622.915,214.606 622.594,214.804 622.167,215.125 621.313,215.594 620.5,216.063 619.844,216.469 618.906,216.813 617.75,216.813 616.594,216.636 615.719,216.188 614.844,215.406 613.938,214.804 612.831,214.063 612.252,213.405 611.938,212.359 612.172,211.438 613.094,210.594 613.938,210.001 614.52,209.406 615.406,208.656 616.188,208.083 617.375,207.781 618.188,207.781 619.034,208.083 619.906,208.281 620.594,208.594 621.281,209 622.031,209.344 622.75,209.625 623.313,209.813 "
       id="polygon4545" />
    <path
       inkscape:connector-curvature="0"
       style="fill:#484748"
       d="m 813.29279,470.99782 0,-0.0545 c -3.46785,-3.92763 -5.11216,-11.16726 -6.90453,-18.91342 -1.78459,-7.74617 -3.79516,-16.1002 -10.15419,-21.51628 -0.008,-0.0156 -0.0312,0.008 -0.0545,0 -2.53271,-2.2054 -5.10437,-3.7484 -7.75396,-4.75368 8.83717,-26.20764 5.32257,-52.27498 -3.60034,-75.84857 -10.94906,-28.93515 -30.03394,-54.19981 -44.63788,-71.44556 -16.34177,-20.6123 -32.28611,-40.1024 -31.97438,-68.99858 0.49095,-44.10798 4.80824,-125.933709 -72.80153,-126.035014 -3.14835,0 -6.42137,0.132484 -9.85805,0.405231 -86.71191,6.982463 -63.70719,98.603913 -64.98523,129.284663 -1.58196,22.43584 -6.14082,40.1102 -21.57082,62.03949 -18.12635,21.55524 -43.69494,56.43639 -55.78957,92.75921 -5.70442,17.14445 -8.40856,34.64736 -5.89924,51.18395 -0.79488,0.70137 -1.49624,1.4417 -2.2054,2.19761 -5.33037,5.68105 -9.27358,12.57779 -13.66101,17.21458 -4.08349,4.08349 -9.90481,5.65766 -16.31059,7.95657 -6.41358,2.29892 -13.48177,5.65767 -17.76008,13.85583 0,0.0155 0,0.039 0,0.0545 -3.86529,7.22405 -2.72752,15.56248 -1.5508,23.26189 1.17674,7.70721 2.40023,14.97021 0.81046,19.91093 -5.07318,13.87141 -5.72779,23.45671 -2.15084,30.41579 3.57695,6.98247 10.94127,10.06847 19.27191,11.80629 16.63011,3.48343 39.16726,2.59505 56.93513,12.0089 l 0,0.0468 c 18.99916,9.94378 38.30224,13.42721 53.67768,9.9126 11.16726,-2.54829 20.17589,-9.14889 24.82826,-19.37321 12.0245,-0.0545 25.23351,-5.1901 46.37572,-6.35124 14.34678,-1.14556 32.23155,5.10437 52.83605,3.95101 0.52992,2.23658 1.37935,4.36404 2.44698,6.40579 0.0156,0.0233 -0.0156,0.0779 0,0.10131 7.98775,15.97549 22.85665,23.26188 38.67629,22.01502 15.83524,-1.25466 32.66796,-10.5672 46.2822,-26.7765 l -2.49373,-2.10408 2.49373,2.04954 c 12.96743,-15.73393 34.55384,-22.25661 48.83827,-30.86779 7.13833,-4.30949 12.90509,-9.67882 13.34929,-17.5185 0.45199,-7.80072 -4.13804,-16.55217 -14.70525,-28.28054 z M 621.6647,183.0024 c -0.0623,-5.75897 0.8884,-10.69189 3.10159,-15.71833 2.21319,-5.01865 4.99526,-8.61898 8.86056,-11.55691 3.8575,-2.93015 7.62148,-4.30949 12.11021,-4.35625 l 0.24937,0 c 4.39521,0 8.14361,1.30142 12.0089,4.10687 3.92764,2.84442 6.77205,6.42917 9.04759,11.40106 2.24436,4.85499 3.3042,9.57751 3.4133,15.2118 0,0.14806 0.0156,0.31171 0.0468,0.45198 0.039,5.78236 -0.95853,10.6841 -3.14833,15.71055 -1.25466,2.86779 -2.68856,5.26801 -4.40301,7.34872 -0.58447,-0.28054 -1.22349,-0.53771 -1.84692,-0.79487 -4.36404,-1.87031 -7.7228,-3.086 -10.50487,-4.05232 1.01308,-1.22349 1.85472,-2.6574 2.60283,-4.45756 1.12219,-2.71973 1.69107,-5.39271 1.80018,-8.55663 0,-0.12469 0.039,-0.20262 0.039,-0.35068 0.0701,-3.03925 -0.35848,-5.64988 -1.24687,-8.30727 -0.92735,-2.78207 -2.13526,-4.78486 -3.84971,-6.46033 -1.71444,-1.65989 -3.4133,-2.43919 -5.45505,-2.50153 -0.0935,-0.0156 -0.20261,0 -0.29612,0 -1.92485,0.0155 -3.57696,0.6546 -5.31478,2.10408 -1.80017,1.51963 -3.17172,3.45227 -4.29391,6.15642 -1.12218,2.70414 -1.6521,5.42388 -1.7612,8.60339 -0.0156,0.13248 -0.0468,0.23379 -0.0468,0.35847 -0.0312,1.75341 0.0857,3.34318 0.35068,4.90176 -3.93543,-1.96382 -7.62149,-3.32759 -11.11272,-4.15363 -0.18702,-1.50404 -0.31171,-3.03145 -0.35068,-4.66017 l 0,-0.42862 z m -52.78149,1.30143 c -0.26496,-4.97968 0.28054,-9.27359 1.6521,-13.71555 1.37934,-4.42639 3.20289,-7.6215 5.85249,-10.2555 2.67297,-2.64181 5.33816,-3.98219 8.56442,-4.15364 0.25717,-0.0155 0.49875,0 0.75592,0 2.91455,0 5.5018,0.98971 8.21374,3.14835 2.92235,2.34567 5.1901,5.33816 7.03701,9.56192 1.86251,4.21598 2.83663,8.43195 3.10159,13.40384 0.14027,2.0963 0.1169,4.09908 -0.0468,6.00834 -0.57667,0.16366 -1.14555,0.35848 -1.70665,0.5533 -3.14834,1.08322 -5.93821,2.50154 -8.35401,4.09909 0.23378,-1.66769 0.28054,-3.35876 0.1013,-5.25244 -0.0155,-0.1013 0,-0.18703 0,-0.29613 -0.24937,-2.50933 -0.81046,-4.629 -1.70665,-6.75647 -0.94295,-2.21319 -2.00278,-3.7484 -3.39771,-4.94851 -1.26246,-1.091 -2.43919,-1.56637 -3.74841,-1.55079 -0.14027,0 -0.26496,-0.007 -0.41302,0 -1.46507,0.13248 -2.73532,0.84163 -3.89646,2.25216 -1.15335,1.41831 -1.90147,3.17951 -2.44698,5.5018 -0.54551,2.32229 -0.67798,4.59004 -0.45199,7.20846 l 0,0.30392 c 0.25717,2.52491 0.79488,4.62121 1.69885,6.74868 0.93516,2.19761 1.97162,3.75619 3.35876,4.9563 0.23379,0.20261 0.47537,0.38965 0.70136,0.5533 -1.44948,1.11439 -2.11188,1.62093 -3.3042,2.50153 -0.7715,0.55329 -1.64431,1.22348 -2.69635,2.00279 -2.3145,-2.15086 -4.13805,-4.84721 -5.70442,-8.40858 -1.85472,-4.22377 -2.85221,-8.43974 -3.15614,-13.41162 l 0,-0.0545 z m 3.8575,30.16642 c 4.58224,-3.42889 7.77734,-5.74339 9.90481,-7.30977 2.11188,-1.543 2.9769,-2.15864 3.64709,-2.79766 3.44447,-3.25744 8.94628,-9.21124 17.21458,-12.05566 2.84441,-0.97412 6.00055,-1.63651 9.56191,-1.64431 l 0.0468,0.0468 c 6.78764,-0.0312 14.93125,2.18981 24.81269,8.55663 6.08627,3.95101 10.83996,4.29391 21.72668,8.95408 5.23684,2.15085 8.34622,4.95629 9.85026,7.90982 1.50403,2.95352 1.51183,6.14082 0.25716,9.50737 -2.50932,6.73308 -10.55162,13.79348 -21.82019,17.31588 l 0,0.0468 c -5.49401,1.78458 -10.31005,5.73559 -15.96772,8.95408 -5.64207,3.23406 -12.02448,5.80573 -20.69801,5.30699 -7.39549,-0.42862 -11.82187,-2.93794 -15.81964,-6.15642 -3.99778,-3.21069 -7.45004,-7.21625 -12.55441,-10.20873 l 0,-0.0545 c -8.21374,-4.63679 -12.74923,-9.99832 -14.15195,-14.65849 -1.42611,-4.66017 -0.0935,-8.65795 3.98998,-11.71277 z m 3.24964,320.26593 0,0.0545 c -1.16893,15.31311 -9.81129,23.63595 -23.05927,26.6674 -13.26355,3.03145 -31.24184,-0.0156 -49.19675,-9.40606 -19.84858,-10.52045 -43.47674,-9.49958 -58.62619,-12.66352 -7.58252,-1.58195 -12.53103,-3.92763 -14.80656,-8.34622 -2.26775,-4.41858 -2.26775,-12.118 2.55608,-25.27246 l 0,-0.10131 0,-0.0468 c 2.38464,-7.35653 0.64682,-15.40662 -0.49875,-22.96576 -1.16114,-7.55914 -1.78458,-14.41692 0.79488,-19.21736 l 0.0623,-0.0468 c 3.30419,-6.36682 8.1436,-8.65014 14.15195,-10.80879 6.00835,-2.15864 13.13109,-3.86529 18.75758,-9.50737 l 0.0545,0 0,-0.0545 c 5.21347,-5.49401 9.13331,-12.36737 13.71555,-17.26133 3.8575,-4.12247 7.72279,-6.86558 13.5597,-6.90454 l 0.18702,0 c 1.01308,0 2.11968,0.13248 3.25745,0.29614 7.72279,1.16893 14.42471,6.55385 20.91622,15.35985 6.4915,8.80601 12.60116,20.83829 18.81212,34.17978 l 0,0.0468 c 4.99527,10.41914 15.49234,21.84357 24.41524,33.52517 8.9307,11.6894 15.85861,23.44113 14.96242,32.41858 l 0,0.0545 z m -1.59755,-24.86723 c -2.45476,-3.88868 -5.26022,-7.75396 -8.15919,-11.55691 -1.85472,-2.4236 -3.75619,-4.82383 -5.65766,-7.20067 3.73281,0 6.89674,-0.63902 9.45282,-1.79237 3.18731,-1.44949 5.4005,-3.73281 6.51488,-6.70971 2.2054,-5.9538 -0.0312,-14.3234 -7.10715,-23.9087 -7.08376,-9.5931 -19.04591,-20.41747 -36.67351,-31.22626 -12.95185,-8.05789 -20.23824,-17.94711 -23.61258,-28.66239 -3.39771,-10.72307 -2.86779,-22.32674 -0.25716,-33.76676 5.02644,-21.97604 17.8458,-43.32867 26.07514,-56.7403 2.21319,-1.62872 0.81046,2.9847 -8.29947,19.91094 -8.17478,15.47675 -23.46451,51.2307 -2.55608,79.09821 0.56109,-19.8408 5.36154,-40.06345 13.31811,-58.98467 11.58029,-26.25437 35.80071,-71.82741 37.72556,-108.12687 0.98191,0.72475 4.37963,3.03924 5.89925,3.90425 4.44197,2.61844 7.78513,6.42918 12.11021,9.90482 4.34066,3.48344 9.73337,6.53047 17.90815,7.00584 9.55413,0.5533 16.86389,-2.43918 22.81769,-5.85248 5.95379,-3.40551 10.70748,-7.18509 15.21959,-8.65015 9.51516,-2.9769 17.10547,-8.21375 21.40717,-14.35457 7.39548,29.15334 24.56331,71.25072 35.62926,91.80068 5.86807,10.91009 17.55747,34.07847 22.59949,62.00052 3.2029,-0.1013 6.73309,0.38186 10.51266,1.34818 13.20901,-34.24213 -11.20623,-71.12604 -22.35791,-81.40491 -4.51211,-4.36404 -4.7381,-6.33566 -2.50153,-6.24994 12.11021,10.71528 28.03896,32.27831 33.8291,56.59224 2.634,11.08934 3.22627,22.72418 0.38964,34.21874 1.40273,0.57669 2.78208,1.17674 4.20819,1.85473 21.20455,10.32562 29.04424,19.31866 25.26467,31.56914 -1.23908,-0.0468 -2.45477,-0.0233 -3.64709,0 -0.12469,0 -0.24938,-0.008 -0.35848,0 3.07042,-9.71778 -3.7406,-16.86389 -21.86695,-25.06206 -18.79655,-8.27608 -33.79014,-7.46561 -36.31504,9.30476 -0.16366,0.88061 -0.31173,1.80017 -0.41303,2.70415 -1.40273,0.48316 -2.78986,1.12997 -4.20039,1.90148 -8.82159,4.82381 -13.62983,13.55968 -16.3106,24.31393 -2.67297,10.73865 -3.45226,23.72167 -4.20039,38.32561 -0.45978,7.33314 -3.49123,17.3003 -6.55385,27.81296 -30.82102,21.93709 -73.54185,31.44447 -109.83352,6.67854 z m 184.46639,-87.46002 c -3.15614,6.03173 -16.72362,15.6404 -26.01279,13.11549 -9.46841,-2.44698 -14.09741,-16.10798 -12.55441,-26.42581 0.82606,-7.00585 4.83941,-10.0295 10.65293,-10.06067 3.84971,-0.0156 8.4943,1.26245 13.60646,3.55357 13.75451,6.35903 18.05621,11.82187 14.30781,19.81742 z m 52.37627,88.86275 c -12.91288,7.79292 -35.80071,14.55719 -50.42804,32.27051 -12.70247,15.11049 -28.18701,23.44113 -41.82464,24.51655 -13.63762,1.07542 -25.38935,-4.59003 -32.32506,-18.51599 l 0,-0.0545 -0.0468,-0.0468 c -4.3017,-8.19037 -2.46257,-21.10324 1.14555,-34.72528 3.63151,-13.62983 8.81381,-27.5558 9.50738,-38.92567 l 0,-0.0468 c 0.74032,-14.57277 1.55858,-27.31421 4.00556,-37.12551 2.44698,-9.81909 6.28889,-16.47424 13.1155,-20.21485 0.31951,-0.17144 0.63902,-0.34289 0.95073,-0.49875 0.78709,12.61675 7.06819,25.48287 18.11077,28.26495 12.08683,3.18731 29.46506,-7.20846 36.82158,-15.66378 1.46507,-0.0546 2.92235,-0.11689 4.30949,-0.15586 6.45255,-0.15586 11.82966,0.26496 17.36264,5.10437 l 0.0545,0 c 4.24715,3.60033 6.25773,10.38797 8.00334,18.00945 1.74562,7.62149 3.14834,15.90536 8.40077,21.82019 l 0,0.0468 c 10.09964,11.19843 13.38826,18.78095 13.11551,23.61257 -0.28834,4.85499 -3.80296,8.43194 -10.27888,12.32841 z"
       id="path4547" />
    <path
       inkscape:connector-curvature="0"
       style="fill:#484748"
       d="m 576.44235,226.12847 c 1.91705,1.80796 4.53548,4.30169 7.69162,6.80322 6.33564,5.01085 15.10269,10.10743 26.2232,10.10743 11.14388,0 21.63316,-5.1823 30.52489,-10.30225 4.42639,-2.56387 8.47092,-5.08878 11.89201,-6.99805 3.42889,-1.92486 6.33565,-3.15614 8.00333,-3.25744 l -0.18702,-3.65489 c -2.93793,0.17924 -6.03952,1.65989 -9.60089,3.65489 -3.57696,1.99498 -7.61369,4.54327 -11.96214,7.0526 -8.7125,5.02643 -18.70303,9.85804 -28.67018,9.85804 -9.98275,0 -17.93933,-4.6134 -23.91649,-9.35151 -2.9925,-2.37684 -5.47843,-4.76147 -7.45784,-6.6084 -0.97412,-0.91956 -1.84692,-1.73782 -2.64959,-2.34567 -0.80268,-0.62343 -1.41832,-1.20011 -2.75091,-1.20011 l -0.1091,2.80546 c -0.10131,0.93515 -0.18703,0.92735 -0.14806,0.95073 0.0545,0.039 0.38965,0.1169 0.74811,0.39744 0.60785,0.4442 1.39494,1.18453 2.36906,2.08851 z"
       id="path4549" />
  </g>
  <g
     inkscape:groupmode="layer"
     id="layer5"
     inkscape:label="Layer 5">
    <path
       inkscape:connector-curvature="0"
       style="fill:#484748"
       id="path1"
       d="m 318.48906,149.85592 -61.25044,265.88674 c 0.0117,0 0.0176,0 0.0468,0 l 283.38937,0 147.39433,0 c -17.56116,-1.52732 -31.42399,-7.65996 -39.68084,-18.83683 -1.53902,-2.07154 -2.803,-4.29521 -3.92069,-6.62421 -0.70221,-1.72043 -1.35761,-3.45254 -2.03056,-5.20807 -1.76139,-5.57088 -2.45774,-11.75621 -2.14761,-18.33943 0.88948,-18.3687 9.54425,-40.21335 24.54818,-63.07621 15.94022,-24.30239 39.04883,-49.78683 67.65228,-73.42798 6.40769,-5.29584 13.03774,-10.52147 19.97793,-15.60665 8.57284,-6.2731 17.21589,-12.0605 25.86482,-17.46753 31.85701,-19.94867 63.63796,-33.91098 91.80254,-41.00919 -26.9123,8.73084 -57.14253,23.55337 -87.0158,43.75367 -1.07671,0.71977 -2.1359,1.46294 -3.18336,2.18856 -16.57805,11.41679 -31.59368,23.55336 -44.69581,35.80696 -42.16783,39.44092 -64.45135,80.30965 -54.32194,104.25509 0.72561,1.64433 1.58582,3.21847 2.59232,4.70481 10.87844,15.92266 37.85509,18.67885 72.04697,10.12942 2.3173,-0.58518 4.64045,-1.22888 7.04552,-1.91352 10.9194,-3.13656 22.50591,-7.36738 34.44936,-12.59887 2.87321,-1.25813 5.76983,-2.55722 8.69571,-3.93823 0.29259,-0.13459 0.57934,-0.28673 0.87778,-0.43889 37.67952,-18.63788 66.65744,-40.0729 72.92469,-52.94679 1.37522,-2.803 1.70872,-5.19051 0.77834,-7.06893 -4.47665,-9.02344 -35.78358,-2.92004 -73.70303,13.41225 -3.04877,1.3225 -6.12681,2.6684 -9.25166,4.11379 2.54553,-2.34071 5.17297,-4.69312 7.87063,-7.01041 4.30106,-3.68076 8.74841,-7.28546 13.48248,-10.84918 7.42004,-5.58258 14.9103,-10.63266 22.30694,-15.10341 34.54301,-25.93504 52.01049,-50.47735 48.37068,-59.57684 -0.68463,-1.70873 -2.1534,-2.90249 -4.4005,-3.61639 -7.19771,-2.27635 -20.35245,0.44472 -36.32777,6.95189 -13.16648,5.37778 -28.29916,13.35373 -43.64248,23.27833 l -2.08909,1.36932 -0.38036,0.22235 -7.37323,4.87454 4.24254,-7.71848 c 6.29064,-11.45191 16.53123,-23.40123 29.27639,-34.50203 9.35113,-8.11054 20.03643,-15.75881 31.53517,-22.44737 4.35371,-2.53383 8.69573,-4.88624 13.04362,-7.00456 4.46489,-2.17103 8.92389,-4.09625 13.26596,-5.8108 12.63976,-4.97401 24.70611,-7.99353 35.22755,-8.81863 -0.95969,0 -29.55137,0 -29.55137,0 l -99.62634,0 -439.2512,0 -34.86484,0 0,0.0117 z m 316.0364,0.38036 c -1.73212,26.21006 3.37647,64.59181 14.96883,107.20438 2.05396,7.58973 4.30104,15.30237 6.75878,23.10862 1.53316,4.82187 3.119,9.56765 4.73408,14.2315 -0.94799,1.39272 -1.90768,2.77959 -2.803,4.16061 -14.46556,22.04946 -22.90966,42.8876 -25.04556,60.99881 -6.10924,-20.35829 -10.71459,-42.65938 -13.32446,-66.31222 -0.73148,-6.76463 -1.31666,-13.47663 -1.70288,-20.09496 -2.84979,-48.07229 3.46425,-91.65624 16.41421,-123.29674 l 0,0 z m -288.56819,34.1158 c 0.3277,-0.006 0.64954,0 0.98894,0 l 65.10677,0 c 5.57088,0 9.87193,1.03575 12.93239,3.12484 3.04878,2.08908 4.18988,4.80431 3.46426,8.10469 l -7.7536,34.8707 -22.95647,0 7.53706,-33.94611 -57.4585,0 -20.75036,93.29472 -7.4844,33.78226 57.40583,0 0.0585,-0.22237 11.50459,-51.68866 -26.97079,0 2.59232,-11.66842 49.92144,0 -14.31343,64.50403 c -0.18726,0.91873 -0.53251,1.74968 -0.98895,2.57477 -1.18204,2.13589 -3.23602,3.96165 -6.10339,5.47141 -3.97919,2.08323 -8.74839,3.11899 -14.31342,3.11899 l -65.05996,0 c -5.57087,0 -9.86607,-1.03576 -12.93239,-3.11899 -3.04293,-2.07737 -4.20158,-4.74578 -3.4584,-8.04618 l 28.67365,-128.93784 c 0.73733,-3.30039 3.04294,-6.01562 7.04553,-8.10469 0.14044,-0.0818 0.29845,-0.0936 0.44475,-0.16971 3.63394,-1.8082 7.91743,-2.82641 12.86803,-2.94344 l 0,0 z m 102.04311,0 81.9423,0 c 5.48896,0 9.81341,1.03575 12.87389,3.12484 3.08973,2.08908 4.26593,4.80431 3.52861,8.10469 l -15.30238,68.75828 c -0.71975,3.28869 -3.08388,5.95125 -7.09818,8.05203 -4.02017,2.10664 -8.74255,3.17166 -14.25492,3.17166 l -59.54757,0 -11.51044,51.64184 -1.8667,8.47921 -22.45323,0 1.70286,-7.66581 31.98576,-143.66674 0,0 z m 113.20244,0 22.45908,0 -25.42009,114.27332 -5.57087,24.96363 53.72508,0 c 0.56177,4.09624 1.22302,8.1281 1.92523,12.10145 l -80.79536,0 6.37843,-28.6912 27.2985,-122.6472 0,0 z m -93.44103,12.15412 -14.92199,66.9091 55.97215,0 14.86349,-66.9091 -55.91365,0 0,0 z m -47.05991,149.69991 c 0.21652,-0.0118 0.43889,0 0.6554,0 2.60404,0 4.88038,0.45058 6.71783,1.31079 1.95448,0.91289 3.34722,2.25879 4.1255,4.04943 0.75487,1.73212 0.95384,3.70418 0.55007,5.85763 l -0.15801,0.82509 -6.44279,0 0.0527,-0.76658 c 0.16385,-1.50976 -0.0176,-2.68596 -0.60858,-3.50521 -0.0761,-0.0995 -0.18141,-0.23993 -0.27504,-0.33356 -0.14629,-0.14044 -0.3628,-0.31599 -0.55591,-0.43887 -0.89532,-0.56177 -2.30559,-0.87192 -4.11966,-0.87192 -2.41677,0 -4.21912,0.42133 -5.45384,1.25813 -1.19376,0.8251 -1.94864,1.74384 -2.19441,2.84395 -0.24577,1.11769 0.158,1.71457 0.43888,2.03058 0.006,0 0.0468,0.0468 0.0527,0.0468 0.36281,0.31015 1.60338,1.01821 5.448,1.92522 3.48765,0.84267 5.79909,1.59169 7.10404,2.24124 1.97204,1.00065 3.35306,2.28805 4.07283,3.89143 0.71977,1.57412 0.87777,3.41743 0.43889,5.41872 -0.43889,1.94865 -1.43369,3.74515 -2.91419,5.4246 -1.4571,1.67946 -3.3238,3.01366 -5.55918,3.93824 -2.22367,0.91288 -4.65215,1.43367 -7.15671,1.43367 -3.17165,0 -5.72303,-0.48569 -7.70677,-1.43367 -2.07739,-0.97725 -3.57544,-2.52797 -4.4649,-4.54098 -0.83681,-1.96619 -1.02405,-4.18986 -0.54423,-6.62419 l 0.16386,-0.76658 6.33161,0 -0.0585,0.76658 c -0.15215,1.45709 0,2.62158 0.38622,3.5052 0.36866,0.84266 1.07671,1.53902 2.20612,2.08323 1.1879,0.57348 2.6918,0.86607 4.39467,0.86607 1.53316,0 2.93175,-0.25162 4.18401,-0.70222 1.23473,-0.43888 2.20613,-1.02406 2.92003,-1.74968 0.68466,-0.74318 1.09429,-1.52145 1.26984,-2.35827 0.16971,-0.74901 0.12289,-1.3927 -0.1697,-1.91352 -0.33355,-0.57346 -0.9948,-1.06501 -2.03057,-1.4805 l -5.40117,-1.58582 c -3.01366,-0.76073 -5.04423,-1.4805 -6.22044,-2.19442 -1.59752,-0.94213 -2.75619,-2.1593 -3.34721,-3.61639 -0.60858,-1.43954 -0.6671,-3.03122 -0.27503,-4.76334 0.40963,-1.85501 1.30494,-3.62224 2.69181,-5.19637 1.41028,-1.59167 3.23019,-2.8498 5.38948,-3.66906 1.91938,-0.72562 3.93238,-1.14109 6.06243,-1.20546 l 0,0 z m 57.78035,0.10533 c 0.34526,-0.0293 0.67882,0 1.05333,0 l 3.96163,0.43303 1.32251,0.11703 -1.92523,4.87452 -0.39207,0.76075 -3.02537,-0.27504 c -0.89532,0 -1.55071,0.14044 -1.98373,0.43888 -0.0234,0.0234 -0.0878,0.0878 -0.11119,0.11705 -0.0585,0.0468 -0.15801,0.13458 -0.21651,0.2165 -0.26919,0.34526 -0.59104,0.96555 -0.82511,2.08323 0,0 -0.11704,0.46814 -0.22238,0.86606 1.38688,0 4.72824,0 4.72824,0 l -1.21132,5.41873 c 0,0 -3.45254,0 -4.62289,0 -0.35111,1.57413 -4.67557,20.86156 -4.67557,20.86156 l -6.39598,0 c 0,0 4.15477,-18.53255 4.68727,-20.86156 -1.07088,0 -3.68661,0 -3.68661,0 l 1.21131,-5.41873 c 0,0 2.63329,0 3.63395,0 0.17555,-0.74903 0.43889,-1.69701 0.43889,-1.69701 0.38621,-1.74967 0.79583,-3.01366 1.3225,-3.88557 0.71976,-1.21717 1.74382,-2.22367 3.02536,-2.96099 1.06502,-0.6086 2.40507,-0.96555 3.90897,-1.08844 l 0,0 z m 15.24386,0.27502 c 0,0 -1.66191,7.46687 -2.09493,9.35699 1.23473,0 4.1255,0 4.1255,0 l -1.20548,5.41873 c 0,0 -3.04291,0 -4.12549,0 -0.33355,1.50976 -2.97855,13.20159 -2.97855,13.20159 0,0 -0.21651,1.40443 -0.21651,1.80236 0,0.0118 0,0.041 0,0.0585 0,0 0,0.0527 0,0.0527 0.006,0.006 0.0527,0 0.0527,0 l 0.66124,0.0527 3.03123,-0.21651 -0.33942,4.87451 0.0585,0.87192 -4.34786,0.49155 c -1.72627,0 -2.99026,-0.28088 -3.90897,-0.86607 -0.96555,-0.63784 -1.53318,-1.46292 -1.75554,-2.52796 -0.0292,-0.19896 -0.11119,-0.47985 -0.11119,-0.87191 0,-0.78414 0.14631,-2.11834 0.6554,-4.43564 0,0 2.3173,-10.31081 2.803,-12.48768 -0.8251,0 -3.02537,0 -3.02537,0 l 1.21133,-5.41872 c 0,0 2.14174,0 3.03121,0 0.28089,-1.25814 1.26398,-5.58259 1.26398,-5.58259 l 5.11444,-2.68011 2.10079,-1.09429 0,0 z m -202.80468,0.21653 24.76466,0 -1.38101,6.1385 c 0,0 -16.51369,0 -18.10537,0 -0.2809,1.23472 -1.40443,6.27895 -1.81405,8.1047 2.29389,0 15.68858,0 15.68858,0 l -1.38101,6.13265 c 0,0 -14.09106,0 -15.68273,0 -0.33941,1.52731 -3.35893,15.05075 -3.35893,15.05075 l -6.65345,0 7.92331,-35.4266 0,0 z m 33.18536,8.64891 c 0.24577,-0.0292 0.52081,0 0.76658,0 1.59168,0 3.04877,0.48569 4.45904,1.48636 l 0.88362,0.60272 -3.41158,5.58258 -0.94215,-0.64953 c -0.67294,-0.44474 -1.42197,-0.66126 -2.1944,-0.66126 -0.67295,0 -1.29323,0.24578 -1.92522,0.66126 -0.66712,0.43888 -1.22888,1.0182 -1.65021,1.8082 -0.74901,1.34589 -1.28739,2.85565 -1.65605,4.49414 l -2.9727,13.45908 -6.38427,0 5.89273,-26.28029 5.93955,0 c 0,0 -0.21067,0.79584 -0.27504,1.10012 0.28088,-0.21065 0.58517,-0.4974 0.83095,-0.66124 0.84851,-0.52081 1.74967,-0.83095 2.63915,-0.94214 l 0,0 z m 18.9246,0 c 0.39208,-0.0292 0.77244,0 1.16452,0 3.59297,0 6.3082,1.25229 8.08713,3.72757 1.11185,1.59169 1.70288,3.56374 1.70288,5.91615 0,1.29324 -0.15216,2.68596 -0.49156,4.21327 l -0.4974,1.91352 c 0,0 -16.14503,0 -17.93567,0 -0.0351,0.36867 -0.0585,0.76658 -0.0585,1.10014 0,1.36931 0.28088,2.44018 0.87776,3.23602 0.28673,0.38621 0.61443,0.73148 0.9948,0.97725 0.70806,0.46814 1.62679,0.71976 2.69182,0.71976 1.30493,0 2.44603,-0.35695 3.52275,-1.04161 1.02406,-0.64954 2.0013,-1.68531 2.86737,-3.11898 l 6.82315,0 -0.60272,1.31079 c -1.30495,2.63329 -3.11899,4.68142 -5.38948,6.13265 -2.28219,1.45124 -4.99741,2.24707 -7.9818,2.24707 -3.89144,0 -6.78806,-1.25226 -8.58456,-3.72756 -1.77893,-2.42264 -2.16515,-5.764 -1.21716,-9.97142 0.96554,-4.27179 2.85567,-7.68337 5.61769,-10.07089 2.4753,-2.14175 5.28414,-3.32381 8.40899,-3.56373 l 0,0 z m 28.68537,0 c 0.38036,-0.0292 0.76074,0 1.15281,0 3.59298,0 6.31405,1.25229 8.08713,3.72757 1.106,1.59169 1.70873,3.56374 1.70873,5.91615 0,1.27568 -0.16385,2.65084 -0.49741,4.15476 l -0.49155,1.96618 c 0,0 -16.13917,0 -17.94152,0 -0.0176,0.25164 -0.035,0.47399 -0.0527,0.71392 -0.0117,0.0936 0.006,0.23992 0,0.33355 0,0.0117 0,0.0292 0,0.0468 0,0.26333 0.035,0.52666 0.0527,0.77242 0.0936,0.9948 0.35696,1.83161 0.82509,2.4636 0.0936,0.12289 0.18142,0.26919 0.27505,0.38622 0.80754,0.85436 1.94863,1.3108 3.41158,1.3108 1.30493,0 2.45773,-0.35695 3.52276,-1.04161 1.02405,-0.64955 2.00715,-1.68533 2.86152,-3.11901 l 6.87581,0 -0.64954,1.31082 c -1.31079,2.63329 -3.12484,4.6814 -5.39531,6.13263 -2.2705,1.45125 -4.98572,2.24708 -7.98768,2.24708 -3.89143,0 -6.7822,-1.25227 -8.58454,-3.72756 -1.1528,-1.57414 -1.70872,-3.5813 -1.70872,-5.96881 0,-0.36867 0.0234,-0.76658 0.0585,-1.15281 0.0761,-0.90701 0.21067,-1.83159 0.44474,-2.8498 0.948,-4.25424 2.79715,-7.68337 5.55333,-10.07089 2.4753,-2.13004 5.33681,-3.31211 8.4792,-3.55203 l 0,0 z m 78.08599,0 c 0.39206,-0.0292 0.76073,0 1.15864,0 3.66906,0 6.47792,1.23472 8.31536,3.66906 1.81991,2.44018 2.24708,5.72303 1.32251,9.86024 -0.72562,3.22432 -1.76724,5.81665 -3.19506,7.71262 -1.41613,1.89597 -3.24189,3.44085 -5.38949,4.49415 -2.1359,1.04748 -4.38883,1.59169 -6.65345,1.59169 -3.73929,0 -6.51887,-1.26984 -8.32707,-3.72758 -1.15864,-1.55656 -1.74968,-3.56959 -1.74968,-5.96881 0,-1.29909 0.14045,-2.6801 0.49155,-4.21327 1.05916,-4.69896 3.21262,-8.28025 6.38427,-10.57413 2.3173,-1.66776 4.89793,-2.62745 7.64242,-2.84397 l 0,0 z m 96.7063,0 c 0.46229,-0.0292 0.88948,0 1.37516,0 2.21782,0 3.96165,0.22238 5.28415,0.77243 1.40443,0.55592 2.41092,1.34591 2.96684,2.2939 0.54422,0.90703 0.82511,1.99546 0.82511,3.34135 l -0.65541,4.00261 -1.2113,5.41875 c -1.04748,4.62874 -1.2757,6.35502 -1.32836,7.00455 -0.0585,0.87193 0.0234,1.72628 0.27503,2.51627 l 0.44473,1.42198 -6.49544,0 -0.27504,-0.81924 c -0.0995,-0.38622 -0.0645,-0.87778 -0.10534,-1.31082 -1.24057,0.74319 -2.4753,1.41614 -3.58129,1.80237 -1.63849,0.56761 -3.34135,0.88361 -5.06177,0.88361 -2.9961,0 -5.21392,-0.78413 -6.55398,-2.29975 -1.0182,-1.12353 -1.48634,-2.49285 -1.48634,-4.05527 0,-0.59688 0.0818,-1.21717 0.22235,-1.86087 0.29844,-1.33419 0.84851,-2.56306 1.70287,-3.66906 0.84851,-1.08843 1.84331,-1.98374 2.9727,-2.63329 1.10013,-0.64955 2.31145,-1.10012 3.58713,-1.41613 l 3.90315,-0.6671 c 3.01365,-0.34526 5.24901,-0.78413 6.88166,-1.25812 0.035,-0.16971 0.10534,-0.37452 0.10534,-0.37452 0.25747,-1.1294 0.22236,-1.97204 -0.0527,-2.41093 -0.0176,-0.0292 -0.0877,-0.0819 -0.11119,-0.11702 -0.0585,-0.0585 -0.14628,-0.15802 -0.21651,-0.22239 -0.66709,-0.51495 -1.80234,-0.76073 -3.3121,-0.76073 -1.70285,0 -2.96684,0.28089 -3.85046,0.81926 -0.86606,0.55006 -1.66191,1.53901 -2.36412,2.95515 l -6.65931,0 0.60859,-1.3108 c 0.79585,-1.82575 1.74382,-3.32966 2.92589,-4.49416 1.17619,-1.15866 2.76788,-2.04813 4.61705,-2.68013 1.42197,-0.46227 2.97269,-0.77242 4.62288,-0.8719 l 0,0 z m 27.90709,0 c 0.25161,-0.0292 0.52079,0 0.77243,0 1.60337,0 3.10143,0.48569 4.51171,1.48636 l 0.83094,0.60272 -3.42327,5.58258 -0.93043,-0.64953 c -0.68467,-0.44474 -1.38688,-0.66126 -2.1476,-0.66126 -0.66712,0 -1.32251,0.24578 -1.97791,0.66126 -0.66709,0.43888 -1.15865,1.0182 -1.59168,1.8082 -0.73147,1.34589 -1.28737,2.85565 -1.65604,4.49414 0,0 -3.02538,13.45908 -3.02538,13.45908 l -6.38427,0 5.88103,-26.28029 5.94539,0 c 0,0 -0.14629,0.79584 -0.21651,1.10012 0.28088,-0.21065 0.57348,-0.4974 0.83095,-0.66124 0.84264,-0.52081 1.70286,-0.83095 2.58064,-0.94214 l 0,0 z m 18.87779,0 c 0.38622,-0.0292 0.77243,0 1.15864,0 3.58715,0 6.33163,1.25229 8.08715,3.72757 1.1294,1.59169 1.70872,3.56374 1.70872,5.91615 0,1.29324 -0.21653,2.68596 -0.55007,4.21327 l -0.43888,1.91352 c 0,0 -16.16258,0 -17.93567,0 -0.041,0.36867 -0.11118,0.76658 -0.11118,1.10014 0,1.36931 0.29844,2.44018 0.87776,3.23602 0.0936,0.12289 0.23407,0.26919 0.33355,0.38621 0.0527,0.0585 0.15215,0.15801 0.21652,0.21653 0.78999,0.70805 1.85501,1.09427 3.18922,1.09427 1.29908,0 2.44603,-0.35695 3.52277,-1.04161 1.02405,-0.64954 1.97788,-1.68531 2.86149,-3.11898 l 6.88169,0 -0.66125,1.31079 c -1.29909,2.63329 -3.13655,4.68142 -5.38363,6.13265 -2.29389,1.45124 -4.97985,2.24707 -7.98766,2.24707 -3.89143,0 -6.73538,-1.25226 -8.52602,-3.72756 -1.77894,-2.42264 -2.20612,-5.764 -1.26983,-9.97142 0.95969,-4.27179 2.79714,-7.68337 5.56502,-10.07089 2.487,-2.14175 5.33682,-3.32381 8.46166,-3.56373 z m -96.37861,0.4974 6.55398,0 c 0,0 0.81339,15.60082 0.83096,15.82904 0.26918,-0.56763 0.46813,-1.02992 0.49739,-1.09428 l 7.20938,-14.73476 5.99807,0 c 0,0 0.55006,15.4077 0.55006,15.50134 0.1697,-0.32186 8.19832,-15.50134 8.19832,-15.50134 l 6.48961,0 -14.30757,26.28029 -5.88688,0 c 0,0 -0.56762,-14.24905 -0.60273,-15.05075 -2.43434,4.96231 -7.37908,15.05075 -7.37908,15.05075 l -6.05657,0 -2.09494,-26.28029 z m -153.76688,4.9857 c -1.51561,0.0645 -2.89663,0.6086 -4.17817,1.64436 -1.02406,0.80753 -1.70872,1.91351 -2.25878,3.12484 l 10.84332,0 c 0.0176,-0.1931 0.0527,-0.42718 0.0527,-0.60858 0,-0.98895 -0.17554,-1.7731 -0.48569,-2.29389 -0.77829,-1.25813 -1.93109,-1.86087 -3.63395,-1.86087 -0.11119,-0.006 -0.23407,-0.0117 -0.3394,-0.006 l 0,0 z m 28.6678,0 c -1.51561,0.0645 -2.89077,0.6086 -4.184,1.64436 -1.01238,0.80753 -1.68532,1.91351 -2.24708,3.12484 l 10.84332,0 c 0.0117,-0.1931 0.0468,-0.42718 0.0468,-0.60858 0,-0.98895 -0.15214,-1.7731 -0.49155,-2.29389 -0.15215,-0.25163 -0.36281,-0.50912 -0.55006,-0.71392 -0.73147,-0.75488 -1.73798,-1.14695 -3.07804,-1.14695 -0.10533,-0.006 -0.23407,-0.0117 -0.33939,-0.006 l 0,0 z m 221.81124,0 c -1.56243,0.0468 -3.01951,0.57348 -4.35372,1.64436 -1.00649,0.80753 -1.68531,1.91351 -2.25293,3.12484 l 10.79067,0 c 0.0117,-0.1931 0.0527,-0.42718 0.0527,-0.60858 0,-0.98895 -0.158,-1.7731 -0.49741,-2.29389 -0.75487,-1.24059 -1.91938,-1.83747 -3.63395,-1.86087 -0.0468,-0.006 -0.0645,-0.0117 -0.10533,-0.006 z m -144.1934,0.10534 c -1.46294,0.17555 -2.81469,0.83096 -4.07282,1.9662 -1.52732,1.36932 -2.61575,3.51691 -3.2536,6.34916 -0.26332,1.18792 -0.38621,2.21198 -0.38621,3.12485 0,1.24057 0.23992,2.21782 0.71977,2.95513 0.12289,0.18726 0.29259,0.38622 0.43888,0.55007 0.7783,0.82511 1.87257,1.25813 3.24773,1.25813 1.77895,0 3.34722,-0.66124 4.83942,-2.02471 1.52731,-1.38687 2.60403,-3.55201 3.24773,-6.4545 0.60858,-2.67425 0.5208,-4.658 -0.32185,-5.92199 -0.81925,-1.22301 -1.99546,-1.8082 -3.6398,-1.8082 -0.28673,0.006 -0.55593,-0.0234 -0.81925,0.006 l 0,0 z m 99.44493,9.58519 c -1.50389,0.40378 -3.17165,0.73733 -5.39533,1.03577 -1.65605,0.24578 -2.8381,0.5091 -3.52861,0.76072 -0.59103,0.25163 -1.07673,0.60274 -1.4805,1.04747 -0.39207,0.44474 -0.64954,0.90117 -0.77243,1.42198 -0.0292,0.20483 -0.0527,0.43303 -0.0527,0.60859 0,0.0117 -0.006,0.035 0,0.0527 0,0.041 -0.006,0.12289 0,0.15799 0.006,0.0819 0.0292,0.20481 0.0527,0.27504 0.006,0.0234 0.0468,0.0877 0.0585,0.11118 0.0176,0.0411 0.0292,0.1229 0.0527,0.158 0.0293,0.0468 0.0819,0.12288 0.11119,0.1697 0.0468,0.0645 0.10533,0.15214 0.16384,0.21651 0.45058,0.49155 1.32249,0.71977 2.58648,0.71977 1.39272,0 2.73278,-0.26333 3.96165,-0.87776 1.22302,-0.59689 2.19441,-1.48634 2.92004,-2.51626 0.5325,-0.73731 0.95382,-1.87257 1.32248,-3.34136 l 0,0 z" />
    <path
       inkscape:connector-curvature="0"
       style="fill:#484748"
       id="path1_1_"
       d="m 235.37642,505.74716 13.14178,0 5.8973,-24.52733 21.34415,0 2.74412,-10.50742 -21.43398,0 3.55239,-15.77608 22.811,0 2.74412,-12.26366 -36.01264,0 -14.78824,63.07449 z" />
    <path
       inkscape:connector-curvature="0"
       style="fill:#484748"
       id="path2_1_"
       d="m 294.29984,505.74716 3.94153,-16.46464 c 2.07556,-8.92085 6.46608,-16.82384 14.74833,-16.82384 0.74838,0 1.4668,0.36925 2.01563,0.45878 l 3.20315,-12.63285 c -0.74838,0 -1.54668,-0.0901 -2.46471,-0.0901 -6.10691,0 -11.23585,4.2708 -14.6585,10.40761 l -0.3593,0 c 0.50911,-3.00354 0.95793,-5.83743 1.28722,-8.66138 l -11.32569,0 c -0.64861,3.6422 -1.65641,10.77684 -3.19314,17.20304 l -6.44613,26.60288 13.25151,0 z" />
    <path
       inkscape:connector-curvature="0"
       style="fill:#484748"
       id="path3"
       d="m 352.74425,493.91262 c -3.64212,1.77618 -7.80321,1.30716 -12.64279,1.30716 -3.82178,0 -6.77546,-0.65861 -8.40198,-1.95578 -0.8382,-1.41699 -1.19744,-3.63219 -1.12756,-5.04918 17.83168,0.47925 29.09749,-3.6222 29.64628,-14.83809 0.42893,-8.46185 -5.78759,-13.19165 -14.82815,-13.19165 -16.12536,0 -26.70261,14.15957 -27.38118,27.79028 -0.60864,11.89442 5.59798,17.7618 18.38052,17.7618 4.90946,0 11.42545,-0.55884 16.76402,-2.15532 l -0.40903,-9.66922 z m -4.82962,-20.52596 c -0.21944,4.17109 -5.38842,4.42055 -15.58648,4.33073 1.10762,-3.66216 4.83958,-7.00498 10.94649,-7.00498 3.02349,0 4.74976,1.12758 4.63999,2.67425 z" />
    <path
       inkscape:connector-curvature="0"
       style="fill:#484748"
       id="path4"
       d="m 399.43399,493.91262 c -3.6522,1.77618 -7.80327,1.30716 -12.63292,1.30716 -3.84174,0 -6.7754,-0.65861 -8.39195,-1.95578 -0.84816,-1.41699 -1.22736,-3.63219 -1.15749,-5.04918 17.8716,0.47925 29.09746,-3.6222 29.6862,-14.83809 0.41899,-8.46185 -5.79752,-13.19165 -14.82815,-13.19165 -16.15526,0 -26.72257,14.15957 -27.41108,27.79028 -0.57874,11.89442 5.61794,17.7618 18.39046,17.7618 4.92942,0 11.44542,-0.55884 16.79394,-2.15532 l -0.44884,-9.66922 z m -4.80969,-20.52596 c -0.20948,4.17109 -5.39842,4.42055 -15.60647,4.33073 1.12755,-3.66216 4.83958,-7.00498 10.94648,-7.00498 3.0235,0 4.75977,1.12758 4.65999,2.67425 z" />
    <path
       inkscape:connector-curvature="0"
       style="fill:#484748"
       id="path5"
       d="m 467.40795,505.74716 c 0.0995,-5.55806 1.44684,-14.27929 2.83388,-20.01701 l 5.65785,-23.78891 c -3.60224,-1.21733 -9.19028,-1.75616 -14.58864,-1.75616 -21.87303,0 -32.72969,16.1253 -33.47807,31.22286 -0.47868,9.47969 4.68989,14.32922 12.71267,14.32922 5.19882,0 11.06622,-2.50461 15.62645,-10.03841 l 0.18959,0 c -0.34936,3.62224 -0.77835,7.14464 -1.00785,10.03841 l 12.05412,0 z m -9.03064,-25.01623 c -2.56447,11.14603 -7.81321,14.4988 -11.72477,14.4988 -3.6522,0 -5.23878,-2.57442 -5.01924,-6.3164 0.42894,-8.46182 7.14466,-18.19092 15.6364,-18.19092 1.37704,0 2.45475,-0.24928 3.46255,-0.49915 l -2.35494,10.50743 z" />
    <path
       inkscape:connector-curvature="0"
       style="fill:#484748"
       id="path6"
       d="m 476.0194,503.68161 c 2.53459,1.95579 7.85314,1.97574 13.40125,2.06555 11.84456,0.0901 20.80532,-5.05914 21.33414,-14.52876 0.28908,-6.30645 -4.61009,-10.03848 -9.42971,-12.54308 -3.46256,-1.65646 -5.21878,-3.253 -5.11901,-5.10901 0.11997,-2.50461 2.48465,-2.8439 5.94722,-2.8439 3.9116,0 7.04487,0.46873 8.841,0.81825 l 3.56234,-9.49959 c -2.03561,-1.20744 -6.06694,-1.83603 -11.27577,-1.83603 -11.50528,0 -19.90726,6.03696 -20.38622,15.21728 -0.27971,5.6778 3.82179,9.49957 8.78117,12.09402 4.02132,2.05556 5.39837,3.63219 5.28865,5.85738 -0.12992,2.24521 -2.13543,1.86602 -5.77763,1.86602 -4.2808,0 -9.02061,-0.55884 -11.51523,-0.93799 l -3.6522,9.37986 z" />
    <path
       inkscape:connector-curvature="0"
       style="fill:#484748"
       id="path7"
       d="m 546.29842,505.74716 10.65713,-43.7959 -13.05196,0 -10.71699,43.7959 13.11182,0 z m 6.11685,-49.0546 c 4.46046,0 8.44188,-3.68209 8.6814,-9.97854 0.20949,-4.28081 -2.56453,-5.78758 -6.6657,-5.78758 -4.2808,0 -8.19242,2.76403 -8.41191,6.90516 -0.20949,4.16106 2.56448,8.86096 6.39621,8.86096 z" />
    <path
       inkscape:connector-curvature="0"
       style="fill:#484748"
       id="path8"
       d="m 571.48431,505.74716 4.64004,-19.72764 c 2.41485,-10.04837 7.61367,-13.57083 11.88447,-13.57083 3.38274,0 4.37063,1.4369 4.21094,3.52246 -0.0901,1.68637 -0.34935,3.46256 -0.70847,5.02918 l -5.91725,24.74683 13.14172,0 6.22662,-25.94427 c 0.47869,-2.24514 1.00785,-5.59797 1.11764,-7.62363 0.3792,-7.90298 -3.57233,-10.77685 -10.87662,-10.77685 -5.84744,0 -11.53524,2.69422 -16.02559,8.55167 l -0.1697,0 1.19744,-8.00282 -11.5951,0 c -0.75838,3.75191 -1.72632,8.28217 -3.10337,13.57084 l -7.18456,30.22506 13.16173,0 z" />
    <path
       inkscape:connector-curvature="0"
       style="fill:#484748"
       id="path9"
       d="m 628.01291,505.74716 13.14172,0 5.91732,-24.52733 21.32418,0 2.74414,-10.50742 -21.42404,0 3.55238,-15.77608 22.81101,0 2.74412,-12.26366 -36.01264,0 -14.79819,63.07449 z" />
    <path
       inkscape:connector-curvature="0"
       style="fill:#484748"
       id="path10"
       d="m 686.94629,505.74716 3.94152,-16.46464 c 2.07556,-8.92085 6.45614,-16.82384 14.75828,-16.82384 0.73844,0 1.46686,0.36925 2.00568,0.45878 l 3.21309,-12.63285 c -0.73837,0 -1.54667,-0.0901 -2.4647,-0.0901 -6.10684,0 -11.23587,4.2708 -14.6585,10.40761 l -0.33941,0 c 0.50911,-3.00354 0.948,-5.83743 1.27727,-8.66138 l -11.32568,0 c -0.6286,3.6422 -1.65641,10.77684 -3.19314,17.20304 l -6.44613,26.60288 13.23154,0 z" />
    <path
       inkscape:connector-curvature="0"
       style="fill:#484748"
       id="path11"
       d="m 745.38075,493.91262 c -3.65214,1.77618 -7.80328,1.30716 -12.64286,1.30716 -3.82179,0 -6.78541,-0.65861 -8.40196,-1.95578 -0.85817,-1.41699 -1.19739,-3.63219 -1.13753,-5.04918 17.84169,0.47925 29.0975,-3.6222 29.66624,-14.83809 0.42893,-8.46185 -5.79752,-13.19165 -14.82816,-13.19165 -16.1353,0 -26.70259,14.15957 -27.39112,27.79028 -0.59868,11.89442 5.60793,17.7618 18.39047,17.7618 4.91946,0 11.44541,-0.55884 16.77398,-2.15532 l -0.42894,-9.66922 z m -4.82964,-20.52596 c -0.20948,4.17109 -5.38842,4.42055 -15.58653,4.33073 1.10763,-3.66216 4.84959,-7.00498 10.95649,-7.00498 3.01349,0 4.73983,1.12758 4.63004,2.67425 z" />
    <path
       inkscape:connector-curvature="0"
       style="fill:#484748"
       id="path12"
       d="m 792.07043,493.91262 c -3.65214,1.77618 -7.80322,1.30716 -12.63286,1.30716 -3.83179,0 -6.77547,-0.65861 -8.40198,-1.95578 -0.84814,-1.41699 -1.21732,-3.63219 -1.14751,-5.04918 17.87158,0.47925 29.0975,-3.6222 29.67623,-14.83809 0.419,-8.46185 -5.78757,-13.19165 -14.82814,-13.19165 -16.15526,0 -26.72256,14.15957 -27.41108,27.79028 -0.57875,11.89442 5.62787,17.7618 18.39045,17.7618 4.93943,0 11.45543,-0.55884 16.78399,-2.15532 l -0.42892,-9.66922 z m -4.79968,-20.52596 c -0.2095,4.17109 -5.39843,4.42055 -15.61645,4.33073 1.12759,-3.66216 4.84956,-7.00498 10.95645,-7.00498 3.01354,0 4.75977,1.12758 4.66,2.67425 z" />
    <path
       inkscape:connector-curvature="0"
       style="fill:#484748"
       id="path13"
       d="m 844.2683,440.91643 -4.93942,19.89725 c -1.79613,-0.73838 -4.14111,-0.6286 -5.97716,-0.6286 -16.86374,0 -28.81808,14.35912 -29.60637,29.9257 -0.529,10.96639 5.3485,15.62638 12.93223,15.62638 5.29859,0 10.88657,-2.32496 15.10749,-8.36199 l 0.17966,0 -1.00786,8.36199 11.94435,0 c 0.53894,-5.24868 1.68636,-11.51523 2.97363,-17.22297 l 11.42545,-47.6077 -13.032,0 z m -10.27793,42.78807 c -2.06556,8.63148 -6.92514,11.52523 -10.76689,11.52523 -3.81178,0 -5.94722,-2.64429 -5.6778,-7.35415 0.42894,-8.73125 6.46615,-17.16317 14.28932,-17.16317 2.20524,0 4.08126,0.3195 5.12895,0.81825 l -2.97358,12.17384 z" />
    <path
       inkscape:connector-curvature="0"
       style="fill:#484748"
       id="path14"
       d="m 874.2339,505.74716 c 15.32706,0 27.13171,-11.54517 27.95993,-27.26145 0.51904,-10.4076 -5.99709,-18.29068 -18.03127,-18.29068 -15.88587,0 -27.27142,12.79253 -28.06971,28.23933 -0.54889,11.25582 6.74551,17.3128 18.14105,17.3128 z m 2.06559,-10.51743 c -4.48044,0 -6.94511,-2.83389 -6.67563,-7.07479 0.34933,-7.06478 4.72977,-17.44253 12.29354,-17.44253 5.20882,0 6.81535,3.97147 6.60579,7.88309 -0.38912,7.70344 -5.11899,16.63423 -12.2237,16.63423 z" />
    <path
       inkscape:connector-curvature="0"
       style="fill:#484748"
       id="path15"
       d="m 918.51872,505.74716 4.75978,-20.01701 c 1.99575,-8.92079 6.95506,-15.01774 11.40552,-15.01774 3.21307,0 4.09125,2.32502 3.93155,5.36846 -0.0801,1.57665 -0.43884,3.35284 -0.80823,5.09905 l -5.87743,24.56724 12.6828,0 4.74976,-20.09683 c 2.18537,-9.20021 6.87521,-14.93792 11.23583,-14.93792 3.0135,0 4.26089,2.12547 4.12126,5.17887 -0.0895,1.76624 -0.45882,3.71206 -0.91811,5.47825 l -5.70768,24.37763 12.77255,0 6.13687,-25.94427 c 0.48906,-2.33497 1.02768,-5.95722 1.11755,-7.81322 0.38911,-7.71339 -3.39271,-11.79464 -10.22812,-11.79464 -5.84739,0 -11.53511,2.62433 -15.84583,8.16245 -0.15978,-3.99142 -3.03357,-8.16245 -10.14826,-8.16245 -5.75763,0 -11.24586,2.59443 -15.6563,8.46182 l -0.16969,0 1.17739,-6.70559 -11.30567,0 c -0.73846,3.75191 -1.63652,8.28217 -3.01353,13.57084 l -7.0748,30.22506 12.66279,0 z" />
    <path
       inkscape:connector-curvature="0"
       style="fill:none;stroke:#484748;stroke-width:10.53318119"
       id="path2"
       d="m 638.71071,388.18177 c 0.70806,1.83746 1.42782,3.66322 2.18271,5.44215 1.14109,2.43434 2.46359,4.74578 4.05527,6.92264 8.60795,11.63916 23.02085,18.02345 41.33103,19.60341 l 19.69118,0 c 6.22044,-0.48569 12.75102,-1.38686 19.50981,-2.69766 11.66256,-2.27634 24.02735,-5.75814 36.86029,-10.41029 9.72563,-3.53447 19.72045,-7.70678 29.86742,-12.5579 22.09626,-10.53318 44.90645,-24.12683 67.29531,-40.51763 7.37907,-5.39532 14.45388,-10.9311 21.23604,-16.56051 6.23214,-5.16125 12.20093,-10.38688 17.91231,-15.67688 15.92263,-15.26726 27.94214,-30.77445 34.74778,-44.38565 7.09235,-14.17298 8.50263,-26.29198 2.7035,-33.92854 -3.5579,-4.69312 -9.5208,-7.20352 -17.19249,-7.79456 34.54884,-25.79459 54.6965,-57.08398 47.46364,-76.81615 -2.29381,-6.29649 -7.33805,-10.98376 -14.58256,-13.5878 -3.21258,-1.1528 -6.83479,-1.87842 -10.77893,-2.21197 l -10.63269,0 c -14.85177,1.06503 -36.44483,6.35502 -54.7667,15.29067" />
  </g>
</svg>
